<svg width="147" height="33" fill="none" xmlns="http://www.w3.org/2000/svg"><rect x="10.394" width="9.094" height="22.606" rx="2" fill="#F2F2F2"/><rect y="10.394" width="9.094" height="22.606" rx="2" fill="#F2F2F2"/><rect x="10.394" y="33" width="9.094" height="22.606" rx="2" transform="rotate(-90 10.394 33)" fill="#F2F2F2"/><path d="M40.158 26V7.8h4.212v14.768h9.126V26H40.158Zm21.985.208c-1.49 0-2.816-.312-3.978-.936a7.286 7.286 0 0 1-2.73-2.548c-.658-1.092-.988-2.331-.988-3.718 0-1.404.33-2.643.988-3.718a7.022 7.022 0 0 1 2.73-2.548c1.162-.624 2.488-.936 3.978-.936 1.474 0 2.79.312 3.952.936 1.162.607 2.072 1.447 2.73 2.522.659 1.075.988 2.323.988 3.744 0 1.387-.33 2.626-.988 3.718-.658 1.075-1.568 1.924-2.73 2.548-1.161.624-2.478.936-3.952.936Zm0-3.328c.676 0 1.283-.156 1.82-.468a3.353 3.353 0 0 0 1.274-1.326c.312-.59.468-1.283.468-2.08 0-.815-.156-1.508-.468-2.08a3.353 3.353 0 0 0-1.274-1.326c-.537-.312-1.144-.468-1.82-.468-.676 0-1.282.156-1.82.468a3.54 3.54 0 0 0-1.3 1.326c-.312.572-.468 1.265-.468 2.08 0 .797.156 1.49.468 2.08a3.54 3.54 0 0 0 1.3 1.326c.538.312 1.144.468 1.82.468Zm16.96 8.372c-1.318 0-2.592-.165-3.823-.494-1.213-.312-2.227-.789-3.042-1.43l1.612-2.912c.59.485 1.335.867 2.236 1.144.919.295 1.82.442 2.704.442 1.439 0 2.479-.32 3.12-.962.659-.641.988-1.595.988-2.86v-2.106l.26-3.51-.052-3.536v-3.016h3.848V23.66c0 2.6-.676 4.515-2.028 5.746-1.352 1.23-3.293 1.846-5.824 1.846Zm-.625-5.928c-1.3 0-2.478-.277-3.536-.832a6.881 6.881 0 0 1-2.522-2.366c-.624-1.023-.936-2.21-.936-3.562 0-1.37.312-2.557.936-3.562a6.607 6.607 0 0 1 2.522-2.366c1.058-.555 2.236-.832 3.536-.832 1.179 0 2.219.243 3.12.728.902.468 1.604 1.205 2.106 2.21.503.988.754 2.262.754 3.822 0 1.543-.251 2.817-.754 3.822-.502.988-1.204 1.725-2.106 2.21-.901.485-1.941.728-3.12.728Zm.806-3.328c.711 0 1.344-.139 1.898-.416a3.273 3.273 0 0 0 1.3-1.222c.312-.52.468-1.118.468-1.794 0-.693-.156-1.291-.468-1.794a3.097 3.097 0 0 0-1.3-1.196c-.554-.295-1.187-.442-1.898-.442-.71 0-1.343.147-1.898.442a3.273 3.273 0 0 0-1.326 1.196c-.312.503-.468 1.1-.468 1.794 0 .676.156 1.274.468 1.794.33.52.772.927 1.326 1.222.555.277 1.188.416 1.898.416ZM90.73 26V12.012h4.056V26H90.73Zm2.028-15.938c-.745 0-1.352-.217-1.82-.65a2.108 2.108 0 0 1-.702-1.612c0-.641.234-1.179.702-1.612.468-.433 1.075-.65 1.82-.65.746 0 1.352.208 1.82.624.468.399.702.919.702 1.56 0 .676-.234 1.24-.702 1.69-.45.433-1.057.65-1.82.65Zm11.799 16.146c-1.318 0-2.505-.295-3.562-.884a6.771 6.771 0 0 1-2.522-2.522c-.607-1.075-.91-2.34-.91-3.796 0-1.473.303-2.747.91-3.822a6.579 6.579 0 0 1 2.522-2.496c1.057-.59 2.244-.884 3.562-.884 1.178 0 2.21.26 3.094.78.884.52 1.568 1.309 2.054 2.366.485 1.057.728 2.41.728 4.056 0 1.63-.234 2.981-.702 4.056-.468 1.057-1.144 1.846-2.028 2.366-.867.52-1.916.78-3.146.78Zm.702-3.328a3.51 3.51 0 0 0 1.794-.468 3.356 3.356 0 0 0 1.274-1.326c.329-.59.494-1.283.494-2.08 0-.815-.165-1.508-.494-2.08a3.356 3.356 0 0 0-1.274-1.326 3.51 3.51 0 0 0-1.794-.468c-.676 0-1.283.156-1.82.468a3.531 3.531 0 0 0-1.3 1.326c-.312.572-.468 1.265-.468 2.08 0 .797.156 1.49.468 2.08a3.531 3.531 0 0 0 1.3 1.326c.537.312 1.144.468 1.82.468Zm3.666 3.12v-2.86l.078-4.16-.26-4.134V6.708h4.056V26h-3.874Zm14.57.208c-1.595 0-2.999-.312-4.212-.936-1.196-.624-2.124-1.473-2.782-2.548-.659-1.092-.988-2.331-.988-3.718 0-1.404.32-2.643.962-3.718a6.875 6.875 0 0 1 2.678-2.548c1.126-.624 2.4-.936 3.822-.936 1.369 0 2.6.295 3.692.884a6.393 6.393 0 0 1 2.626 2.496c.641 1.075.962 2.366.962 3.874 0 .156-.009.338-.026.546l-.052.546h-11.362v-2.366h9.23l-1.56.702c0-.728-.148-1.36-.442-1.898a3.139 3.139 0 0 0-1.222-1.248c-.52-.312-1.127-.468-1.82-.468-.694 0-1.309.156-1.846.468-.52.295-.928.72-1.222 1.274-.295.537-.442 1.179-.442 1.924v.624c0 .763.164 1.439.494 2.028a3.513 3.513 0 0 0 1.43 1.326c.624.295 1.352.442 2.184.442.745 0 1.395-.113 1.95-.338a4.742 4.742 0 0 0 1.56-1.014l2.158 2.34c-.642.728-1.448 1.291-2.418 1.69-.971.381-2.089.572-3.354.572ZM136.496 26l-5.876-13.988h4.186l4.888 12.038h-2.08l5.07-12.038h3.9L140.682 26h-4.186Z" fill="#F2F2F2"/></svg>